<?xml version="1.0" standalone="no"?>
<!DOCTYPE svg PUBLIC "-//W3C//DTD SVG 20010904//EN"
 "http://www.w3.org/TR/2001/REC-SVG-20010904/DTD/svg10.dtd">
<svg version="1.0" xmlns="http://www.w3.org/2000/svg"
 width="100.000000pt" height="100.000000pt" viewBox="0 0 100.000000 100.000000"
 preserveAspectRatio="xMidYMid meet">
<metadata>
Created by potrace 1.11, written by Peter Selinger 2001-2013
</metadata>
<g transform="translate(0.000000,100.000000) scale(0.100000,-0.100000)"
fill="#000000" stroke="none">
<path d="M391 914 c-79 -21 -145 -60 -202 -121 -155 -163 -156 -420 -3 -584
172 -183 455 -184 626 -1 163 175 155 441 -20 604 -109 102 -259 140 -401 102z
m255 -88 c73 -33 142 -100 181 -176 25 -49 28 -66 28 -150 0 -85 -3 -101 -29
-153 -35 -69 -117 -149 -183 -179 -69 -32 -217 -32 -286 0 -66 30 -148 111
-183 179 -25 52 -29 68 -29 153 0 84 3 101 28 150 69 135 194 212 337 207 57
-2 90 -9 136 -31z"/>
<path d="M232 674 c-42 -29 -14 -94 40 -94 16 0 18 -11 18 -113 0 -124 12
-157 55 -157 43 0 55 33 55 157 0 106 1 113 20 113 19 0 20 -7 20 -163 0 -177
8 -207 55 -207 47 0 55 30 55 207 0 156 1 163 20 163 19 0 20 -7 20 -113 0
-124 12 -157 55 -157 43 0 55 33 55 157 0 102 2 113 18 113 29 0 62 29 62 55
0 50 -24 55 -285 55 -202 0 -244 -3 -263 -16z"/>
</g>
</svg>
